HIERARCHY
ROOT Hips
{
	OFFSET 0.000000 71.427986 0.000000
	CHANNELS 6 Xposition Yposition Zposition Xrotation Yrotation Zrotation
	JOINT Pelvis
	{
		OFFSET 0.000000 0.000000 0.000000
		CHANNELS 3 Xrotation Yrotation Zrotation
		JOINT LeftUpLeg
		{
			OFFSET 6.797100 -2.508499 -1.318700
			CHANNELS 3 Xrotation Yrotation Zrotation
			JOINT LeftLeg
			{
				OFFSET 0.069008 -29.241863 0.690200
				CHANNELS 3 Xrotation Yrotation Zrotation
				JOINT LeftFoot
				{
					OFFSET -0.069008 -29.568123 -0.266800
					CHANNELS 3 Xrotation Yrotation Zrotation
					JOINT LeftToeBase
					{
						OFFSET 3.145500 -8.631000 16.059900
						CHANNELS 3 Xrotation Yrotation Zrotation
						End Site
						{
							OFFSET 0.000000 18.501587 0.000000
						}
					}
				}
			}
			JOINT Left_ShortSleeve
			{
				OFFSET 0.265923 -10.480953 1.153800
				CHANNELS 3 Xrotation Yrotation Zrotation
				End Site
				{
					OFFSET 1.725763 19.823879 0.000000
				}
			}
		}
		JOINT RightUpLeg
		{
			OFFSET -6.797100 -2.508499 -1.318700
			CHANNELS 3 Xrotation Yrotation Zrotation
			JOINT RightLeg
			{
				OFFSET -0.082453 -29.241932 0.688000
				CHANNELS 3 Xrotation Yrotation Zrotation
				JOINT RightFoot
				{
					OFFSET 0.082453 -29.568058 -0.264600
					CHANNELS 3 Xrotation Yrotation Zrotation
					JOINT RightToeBase
					{
						OFFSET -3.115300 -8.682800 16.113400
						CHANNELS 3 Xrotation Yrotation Zrotation
						End Site
						{
							OFFSET 0.000000 18.567114 0.000000
						}
					}
				}
			}
			JOINT Right_ShortSleeve
			{
				OFFSET -0.265923 -10.480953 1.153800
				CHANNELS 3 Xrotation Yrotation Zrotation
				End Site
				{
					OFFSET -1.725766 19.823910 0.000000
				}
			}
		}
	}
	JOINT Spine
	{
		OFFSET 0.000000 13.368103 0.470500
		CHANNELS 3 Xrotation Yrotation Zrotation
		JOINT Spine1
		{
			OFFSET 0.147000 13.837402 0.538800
			CHANNELS 3 Xrotation Yrotation Zrotation
			JOINT Spine2
			{
				OFFSET 0.168000 16.242897 -1.435500
				CHANNELS 3 Xrotation Yrotation Zrotation
				JOINT Neck
				{
					OFFSET 0.217200 18.631500 -1.679100
					CHANNELS 3 Xrotation Yrotation Zrotation
					JOINT Head
					{
						OFFSET 0.000000 6.599396 1.385900
						CHANNELS 3 Xrotation Yrotation Zrotation
						JOINT Hat
						{
							OFFSET -0.532200 27.220596 -10.096100
							CHANNELS 3 Xrotation Yrotation Zrotation
							End Site
							{
								OFFSET 0.000000 22.029861 0.000000
							}
						}
						JOINT HairD
						{
							OFFSET -10.777400 17.437393 -1.325900
							CHANNELS 3 Xrotation Yrotation Zrotation
							JOINT HairD1
							{
								OFFSET -3.290299 -11.051193 1.062200
								CHANNELS 3 Xrotation Yrotation Zrotation
								End Site
								{
									OFFSET 0.000000 11.579437 0.000000
								}
							}
						}
						JOINT HairB
						{
							OFFSET -10.777400 17.437393 1.467900
							CHANNELS 3 Xrotation Yrotation Zrotation
							JOINT HairB1
							{
								OFFSET -1.561200 -12.956299 3.590200
								CHANNELS 3 Xrotation Yrotation Zrotation
								End Site
								{
									OFFSET 0.000000 13.534866 0.000000
								}
							}
						}
						JOINT HairA
						{
							OFFSET 9.713100 17.437393 1.467900
							CHANNELS 3 Xrotation Yrotation Zrotation
							JOINT HairA1
							{
								OFFSET 1.561200 -12.956299 3.590200
								CHANNELS 3 Xrotation Yrotation Zrotation
								End Site
								{
									OFFSET 0.000000 13.534866 0.000000
								}
							}
						}
						JOINT HairC
						{
							OFFSET 9.713100 17.437393 -1.325900
							CHANNELS 3 Xrotation Yrotation Zrotation
							JOINT HairC1
							{
								OFFSET 3.290300 -11.051193 1.062200
								CHANNELS 3 Xrotation Yrotation Zrotation
								End Site
								{
									OFFSET 0.000000 11.579437 0.000000
								}
							}
						}
					}
				}
				JOINT LeftShoulder
				{
					OFFSET 5.101800 15.108002 -2.763700
					CHANNELS 3 Xrotation Yrotation Zrotation
					JOINT LeftArm
					{
						OFFSET 9.825497 2.506317 -1.597400
						CHANNELS 3 Xrotation Yrotation Zrotation
						JOINT LeftForeArm
						{
							OFFSET 21.966244 0.000000 0.000000
							CHANNELS 3 Xrotation Yrotation Zrotation
							JOINT LeftHand
							{
								OFFSET 33.879036 0.000000 0.000000
								CHANNELS 3 Xrotation Yrotation Zrotation
								JOINT LeftHandThumb1
								{
									OFFSET 6.715286 -2.359680 3.363841
									CHANNELS 3 Xrotation Yrotation Zrotation
									JOINT LeftHandThumb2
									{
										OFFSET 2.507072 -1.447464 1.447461
										CHANNELS 3 Xrotation Yrotation Zrotation
										JOINT LeftHandThumb3
										{
											OFFSET 2.898338 -1.673355 1.673357
											CHANNELS 3 Xrotation Yrotation Zrotation
											End Site
											{
												OFFSET -0.295959 3.727692 -0.131651
											}
										}
									}
								}
								JOINT LeftHandIndex1
								{
									OFFSET 14.190811 -0.254547 3.840278
									CHANNELS 3 Xrotation Yrotation Zrotation
									JOINT LeftHandIndex2
									{
										OFFSET 3.551727 0.000000 -0.000000
										CHANNELS 3 Xrotation Yrotation Zrotation
										JOINT LeftHandIndex3
										{
											OFFSET 2.894196 0.000000 0.000000
											CHANNELS 3 Xrotation Yrotation Zrotation
											End Site
											{
												OFFSET -1.000603 2.690872 0.366626
											}
										}
									}
								}
								JOINT LeftHandMiddle1
								{
									OFFSET 13.776489 0.000000 0.000000
									CHANNELS 3 Xrotation Yrotation Zrotation
									JOINT LeftHandMiddle2
									{
										OFFSET 3.438232 0.000000 0.000000
										CHANNELS 3 Xrotation Yrotation Zrotation
										JOINT LeftHandMiddle3
										{
											OFFSET 3.691551 0.000000 0.000000
											CHANNELS 3 Xrotation Yrotation Zrotation
											End Site
											{
												OFFSET -1.082298 3.499527 0.457670
											}
										}
									}
								}
								JOINT LeftHandRing1
								{
									OFFSET 13.966164 -0.268127 -3.067488
									CHANNELS 3 Xrotation Yrotation Zrotation
									JOINT LeftHandRing2
									{
										OFFSET 3.162567 0.000000 0.000000
										CHANNELS 3 Xrotation Yrotation Zrotation
										JOINT LeftHandRing3
										{
											OFFSET 3.324348 0.000000 0.000000
											CHANNELS 3 Xrotation Yrotation Zrotation
											End Site
											{
												OFFSET -0.861900 3.184998 0.405154
											}
										}
									}
								}
								JOINT LeftHandPinky1
								{
									OFFSET 13.131393 -0.168503 -5.746925
									CHANNELS 3 Xrotation Yrotation Zrotation
									JOINT LeftHandPinky2
									{
										OFFSET 2.849182 0.000000 0.000000
										CHANNELS 3 Xrotation Yrotation Zrotation
										JOINT LeftHandPinky3
										{
											OFFSET 2.805038 0.000000 0.000000
											CHANNELS 3 Xrotation Yrotation Zrotation
											End Site
											{
												OFFSET -0.882500 2.642609 0.325652
											}
										}
									}
								}
							}
							JOINT Left_Sleeve
							{
								OFFSET 6.592125 -0.646545 0.805568
								CHANNELS 3 Xrotation Yrotation Zrotation
								End Site
								{
									OFFSET -0.000179 20.275787 -0.000000
								}
							}
						}
					}
				}
				JOINT RightShoulder
				{
					OFFSET -5.731700 15.108002 -2.763700
					CHANNELS 3 Xrotation Yrotation Zrotation
					JOINT RightArm
					{
						OFFSET -9.825497 2.506317 -1.597400
						CHANNELS 3 Xrotation Yrotation Zrotation
						JOINT RightForeArm
						{
							OFFSET -21.966242 0.000000 0.000000
							CHANNELS 3 Xrotation Yrotation Zrotation
							JOINT RightHand
							{
								OFFSET -33.879032 0.000000 0.000000
								CHANNELS 3 Xrotation Yrotation Zrotation
								JOINT RightHandThumb1
								{
									OFFSET -6.715286 -2.359680 3.363841
									CHANNELS 3 Xrotation Yrotation Zrotation
									JOINT RightHandThumb2
									{
										OFFSET -2.507072 -1.447464 1.447461
										CHANNELS 3 Xrotation Yrotation Zrotation
										JOINT RightHandThumb3
										{
											OFFSET -2.898338 -1.673355 1.673357
											CHANNELS 3 Xrotation Yrotation Zrotation
											End Site
											{
												OFFSET 0.295959 3.727692 -0.131651
											}
										}
									}
								}
								JOINT RightHandIndex1
								{
									OFFSET -14.190811 -0.254547 3.840278
									CHANNELS 3 Xrotation Yrotation Zrotation
									JOINT RightHandIndex2
									{
										OFFSET -3.551727 0.000000 -0.000000
										CHANNELS 3 Xrotation Yrotation Zrotation
										JOINT RightHandIndex3
										{
											OFFSET -2.894196 0.000000 0.000000
											CHANNELS 3 Xrotation Yrotation Zrotation
											End Site
											{
												OFFSET 1.000603 2.690872 0.366626
											}
										}
									}
								}
								JOINT RightHandMiddle1
								{
									OFFSET -13.776489 0.000000 0.000000
									CHANNELS 3 Xrotation Yrotation Zrotation
									JOINT RightHandMiddle2
									{
										OFFSET -3.438232 0.000000 0.000000
										CHANNELS 3 Xrotation Yrotation Zrotation
										JOINT RightHandMiddle3
										{
											OFFSET -3.691551 0.000000 0.000000
											CHANNELS 3 Xrotation Yrotation Zrotation
											End Site
											{
												OFFSET 1.082298 3.499527 0.457670
											}
										}
									}
								}
								JOINT RightHandRing1
								{
									OFFSET -13.966164 -0.268127 -3.067488
									CHANNELS 3 Xrotation Yrotation Zrotation
									JOINT RightHandRing2
									{
										OFFSET -3.162567 0.000000 0.000000
										CHANNELS 3 Xrotation Yrotation Zrotation
										JOINT RightHandRing3
										{
											OFFSET -3.324348 0.000000 0.000000
											CHANNELS 3 Xrotation Yrotation Zrotation
											End Site
											{
												OFFSET 0.861900 3.184998 0.405154
											}
										}
									}
								}
								JOINT RightHandPinky1
								{
									OFFSET -13.131393 -0.168503 -5.746925
									CHANNELS 3 Xrotation Yrotation Zrotation
									JOINT RightHandPinky2
									{
										OFFSET -2.849182 0.000000 0.000000
										CHANNELS 3 Xrotation Yrotation Zrotation
										JOINT RightHandPinky3
										{
											OFFSET -2.805038 0.000000 0.000000
											CHANNELS 3 Xrotation Yrotation Zrotation
											End Site
											{
												OFFSET 0.882500 2.642609 0.325652
											}
										}
									}
								}
							}
							JOINT Right_Sleeve
							{
								OFFSET -6.592125 -0.646545 0.805568
								CHANNELS 3 Xrotation Yrotation Zrotation
								End Site
								{
									OFFSET 0.000179 20.275787 -0.000000
								}
							}
						}
					}
				}
				JOINT Bind_Right_JacketString
				{
					OFFSET -3.534800 11.969597 7.200700
					CHANNELS 3 Xrotation Yrotation Zrotation
					JOINT Bind_Right_JacketString1
					{
						OFFSET -0.319900 -6.102600 2.794100
						CHANNELS 3 Xrotation Yrotation Zrotation
						End Site
						{
							OFFSET 0.000000 6.719452 0.000000
						}
					}
				}
				JOINT Bind_Left_JacketString
				{
					OFFSET 2.904800 11.969597 7.200700
					CHANNELS 3 Xrotation Yrotation Zrotation
					JOINT Bind_Left_JacketString1
					{
						OFFSET 0.364800 -5.904503 3.186800
						CHANNELS 3 Xrotation Yrotation Zrotation
						End Site
						{
							OFFSET 0.000000 6.719513 0.000000
						}
					}
				}
				JOINT HairE
				{
					OFFSET 5.915200 17.612701 -11.592200
					CHANNELS 3 Xrotation Yrotation Zrotation
					JOINT HairE1
					{
						OFFSET 0.289200 -7.171898 -1.284500
						CHANNELS 3 Xrotation Yrotation Zrotation
						End Site
						{
							OFFSET 0.000000 7.291756 0.000000
						}
					}
				}
				JOINT HairF
				{
					OFFSET -0.864800 17.612701 -11.592200
					CHANNELS 3 Xrotation Yrotation Zrotation
					JOINT HairF1
					{
						OFFSET 0.000000 -14.087097 -2.127501
						CHANNELS 3 Xrotation Yrotation Zrotation
						End Site
						{
							OFFSET 0.000000 14.246841 0.000000
						}
					}
				}
				JOINT HairG
				{
					OFFSET -8.087700 17.612701 -11.592200
					CHANNELS 3 Xrotation Yrotation Zrotation
					JOINT HairG1
					{
						OFFSET -0.293600 -6.081398 -0.910100
						CHANNELS 3 Xrotation Yrotation Zrotation
						End Site
						{
							OFFSET 0.000000 6.156120 0.000000
						}
					}
				}
			}
		}
	}
	JOINT Pouch
	{
		OFFSET 0.000000 4.394501 10.847300
		CHANNELS 3 Xrotation Yrotation Zrotation
		End Site
		{
			OFFSET 0.000000 21.880577 0.000000
		}
	}
	JOINT Bag
	{
		OFFSET -13.229000 4.813004 -0.593300
		CHANNELS 3 Xrotation Yrotation Zrotation
		End Site
		{
			OFFSET 0.000000 21.880577 0.000000
		}
	}
	JOINT OccupyGuyFacialAnim_Joint
	{
		OFFSET 1.000000 -70.206398 -1.655000
		CHANNELS 3 Xrotation Yrotation Zrotation
		End Site
		{
			OFFSET 0.000000 21.880577 0.000000
		}
	}
}
MOTION
Frames: 4
Frame Time: 0.033333
47.737465 71.505684 109.322548 -3.488231 42.962532 7.813574 -0.000000 -0.000001 -0.000000 -15.793677 9.863184 -11.656317 38.161069 -10.746270 -1.188207 4.135029 -1.212041 14.347758 0.000001 0.000000 -0.000001 0.000001 0.000001 -0.000000 -22.561001 14.355990 0.316396 67.131832 -13.933821 -0.711902 11.328395 -4.576919 -2.363893 -0.000001 0.000003 0.000000 0.000002 0.000003 0.000000 2.656141 -1.155585 -5.921817 -1.325620 -1.163662 0.817525 -1.438974 -1.086691 0.916037 -7.118965 3.300085 1.481928 3.009340 7.256461 -2.336361 -0.000000 0.000003 -0.000000 -0.000000 0.000003 -0.000000 -0.000000 0.000003 0.000000 -0.000000 0.000003 -0.000000 -0.000000 -0.000000 0.000000 -0.000000 0.000003 -0.000000 -0.000000 -0.000000 0.000000 -0.000000 0.000003 -0.000000 -0.000000 0.000003 -0.000000 1.278784 8.282241 -5.884511 5.487402 -5.716221 -69.262585 10.995035 -23.144455 4.299505 -3.505213 1.553094 -4.566417 10.887889 1.246828 25.518085 -6.107953 25.101703 -7.037460 0.000002 -0.000001 -0.000000 2.273927 2.860336 -7.022263 -2.151788 2.437459 -12.915089 -0.000000 0.000001 -0.000002 -1.975892 5.648614 -12.925030 0.258615 5.087089 -31.070319 0.000003 0.000001 0.000003 -4.961683 10.079271 -11.366460 4.009602 4.047733 -37.672622 -0.000002 0.000002 0.000001 -6.453043 11.290885 -20.815895 10.729968 2.574856 -38.101626 -0.000001 -0.000001 0.000003 0.000003 0.000001 -0.000002 0.653105 6.246615 2.354860 1.709282 -0.054530 76.942095 10.204126 11.314847 -3.125151 0.035617 4.570857 -3.022545 10.804385 -0.128368 -25.395012 -5.935856 -25.377860 7.041886 -0.000001 -0.000002 -0.000003 2.290260 -3.071427 7.871203 -2.151278 -2.429189 14.934069 0.000003 0.000001 -0.000001 -1.974392 -5.650457 14.486232 0.269455 -5.094361 31.329716 -0.000002 -0.000000 -0.000003 -4.966003 -10.089018 12.710192 4.004648 -4.055509 37.979970 -0.000002 0.000002 -0.000002 -6.445520 -11.295053 22.248650 10.719209 -2.567187 37.975193 -0.000001 0.000004 -0.000004 -0.000003 0.000000 -0.000000 0.000000 -0.000000 -0.000000 -0.000000 -0.000000 -0.000000 0.000000 -0.000000 -0.000000 0.000000 -0.000000 -0.000000 0.000000 -0.000000 -0.000000 -0.000000 -0.000000 0.000000 0.000000 -0.000000 -0.000000 0.000000 -0.000000 -0.000000 0.000000 -0.000000 -0.000000 -0.000000 -0.000000 0.000000 -0.000000 -0.000001 -0.000000 -0.000000 -0.000001 -0.000000 -0.000000 -0.000001 -0.000000 
48.685810 71.818230 110.867561 -2.704410 45.139344 5.933112 -0.000000 -0.000001 -0.000000 -14.768421 9.024076 -9.913035 37.838893 -12.046970 -1.344886 2.938955 -1.396742 14.703859 0.000000 0.000001 -0.000001 0.000002 0.000004 -0.000000 -27.353359 16.112930 2.340120 64.517045 -13.647317 -0.717834 9.037516 -4.762643 -0.518436 0.000002 -0.000001 0.000000 -0.000000 0.000003 0.000000 3.312483 -1.439331 -5.446015 -1.777615 -1.610057 1.334797 -1.884349 -1.504935 1.444946 -6.959354 2.850358 2.091292 3.091848 7.132209 -2.654661 -0.000000 -0.000002 -0.000000 -0.000000 -0.000002 -0.000000 -0.000000 -0.000002 -0.000000 -0.000000 -0.000002 -0.000000 -0.000000 -0.000002 -0.000000 -0.000000 -0.000002 -0.000000 -0.000000 -0.000002 -0.000000 -0.000000 -0.000002 -0.000000 -0.000000 -0.000002 -0.000000 1.160516 7.595439 -5.207533 4.128661 -7.551712 -69.228960 10.365317 -23.115706 4.027324 -3.787316 0.679968 -3.598834 10.930299 1.792584 25.581162 -6.193597 24.967753 -7.036305 -0.000001 -0.000000 -0.000004 2.265744 2.757457 -6.607052 -2.151401 2.437963 -11.928511 0.000000 -0.000000 -0.000000 -1.977438 5.650767 -12.161685 0.258687 5.086289 -30.943824 0.000001 0.000000 -0.000001 -4.962417 10.081673 -10.708763 4.009736 4.047087 -37.522286 0.000000 -0.000001 -0.000003 -6.454400 11.293245 -20.115805 10.728950 2.575291 -38.162705 -0.000004 -0.000001 -0.000003 -0.000001 -0.000000 -0.000001 0.551899 5.166429 2.977071 2.826250 -0.847812 76.289900 9.960788 11.547371 -3.248043 0.025177 3.872514 -2.722515 10.760873 0.418738 -25.335989 -5.850192 -25.511991 7.043876 -0.000003 0.000000 0.000003 2.301329 -3.174565 8.286275 -2.151122 -2.430779 15.920821 0.000002 -0.000001 0.000000 -1.974754 -5.651239 15.249517 0.269522 -5.094247 31.456228 0.000002 0.000000 -0.000001 -4.967247 -10.090638 13.368003 4.005144 -4.056083 38.130334 0.000001 -0.000002 -0.000004 -6.447200 -11.298481 22.948676 10.719515 -2.567277 37.914134 -0.000001 0.000002 -0.000003 -0.000001 0.000000 -0.000001 -0.000000 0.000001 -0.000000 -0.000000 -0.000001 0.000000 -0.000000 0.000001 0.000000 -0.000000 0.000001 0.000000 -0.000000 0.000001 -0.000000 -0.000000 -0.000001 -0.000000 -0.000000 0.000001 0.000000 -0.000000 0.000001 0.000000 -0.000000 0.000001 -0.000000 -0.000000 -0.000001 -0.000000 -0.000000 -0.000001 -0.000000 -0.000000 -0.000001 -0.000000 -0.000000 -0.000001 -0.000000 
49.735207 72.148323 112.395973 -2.260638 47.206272 4.511186 -0.000000 0.000003 -0.000000 -13.142935 7.968516 -8.469238 37.030369 -14.074701 -1.516850 2.170218 -1.483087 15.228146 0.000001 -0.000002 0.000000 0.000000 -0.000002 -0.000000 -29.373488 17.547265 3.258039 57.727004 -13.291552 -0.819278 7.008611 -5.326742 1.159401 -0.000001 0.000000 -0.000000 0.000001 -0.000000 -0.000000 3.787077 -1.627984 -4.868828 -1.917041 -1.870129 1.566975 -2.016496 -1.745489 1.688299 -7.136431 2.301332 2.835104 3.015806 6.976166 -2.961342 -0.000000 -0.000002 -0.000000 -0.000000 -0.000002 -0.000000 -0.000000 -0.000002 -0.000000 -0.000000 -0.000002 -0.000000 -0.000000 0.000001 -0.000000 -0.000000 -0.000002 -0.000000 -0.000000 0.000001 -0.000000 -0.000000 -0.000002 -0.000000 -0.000000 -0.000002 -0.000000 1.054431 6.658266 -4.553235 2.584424 -8.729313 -69.170733 10.931301 -23.345692 4.316971 -3.819437 -0.399057 -2.588705 10.970419 2.313118 25.642577 -6.275329 24.839950 -7.035491 -0.000000 -0.000000 0.000003 2.259801 2.659275 -6.210785 -2.153708 2.439141 -10.986626 0.000002 0.000001 -0.000002 -1.979286 5.653764 -11.433092 0.257320 5.085601 -30.822970 0.000001 0.000001 -0.000001 -4.964068 10.085162 -10.080920 4.009880 4.046647 -37.378815 -0.000000 -0.000000 -0.000000 -6.456671 11.297020 -19.447562 10.728454 2.575740 -38.221073 0.000000 -0.000002 -0.000003 0.000001 -0.000001 -0.000001 0.468851 4.296590 3.807816 3.712522 -1.736368 75.758088 10.237042 11.570050 -3.600558 -0.017969 3.454717 -2.229727 10.719005 0.941362 -25.280876 -5.768407 -25.640037 7.046079 -0.000002 -0.000000 0.000003 2.314354 -3.272912 8.682523 -2.150835 -2.432942 16.862733 0.000003 0.000002 0.000001 -1.975483 -5.652948 15.978133 0.269423 -5.093938 31.577030 0.000000 -0.000001 -0.000001 -4.968454 -10.093467 13.996033 4.005625 -4.056583 38.273839 0.000003 -0.000003 0.000000 -6.449588 -11.302723 23.616986 10.719815 -2.567409 37.855866 0.000000 0.000001 0.000001 0.000001 -0.000000 0.000001 -0.000000 -0.000001 -0.000000 -0.000000 -0.000002 -0.000000 -0.000000 -0.000001 -0.000000 -0.000000 -0.000001 -0.000000 -0.000000 -0.000001 -0.000000 -0.000000 -0.000002 0.000000 -0.000000 -0.000001 -0.000000 -0.000000 -0.000001 -0.000000 -0.000000 -0.000001 -0.000000 -0.000000 -0.000002 0.000000 -0.000000 0.000003 -0.000000 -0.000000 0.000003 -0.000000 -0.000000 0.000003 -0.000000 
50.919209 72.384773 113.983612 -2.151291 49.418078 3.864839 -0.000000 -0.000001 -0.000000 -10.922683 7.255919 -7.358072 35.868902 -15.707488 -1.773885 1.240463 -1.552545 15.633348 -0.000001 0.000001 -0.000000 -0.000000 0.000001 -0.000000 -30.641567 18.020836 2.896765 49.957841 -11.662628 -0.743293 8.290643 -6.318685 -0.385605 -0.000000 -0.000001 0.000000 -0.000001 -0.000001 -0.000000 4.226573 -1.920479 -4.738665 -1.841601 -2.103290 1.635291 -1.933949 -1.969564 1.771419 -7.622174 1.684660 3.811171 2.836206 6.844594 -3.158515 -0.000000 0.000001 0.000000 -0.000000 0.000001 0.000000 -0.000000 0.000001 0.000000 -0.000000 0.000001 0.000000 0.000000 -0.000002 -0.000000 -0.000000 0.000001 0.000000 0.000000 -0.000002 -0.000000 -0.000000 0.000001 0.000000 -0.000000 0.000001 0.000000 0.962493 5.850590 -3.864039 1.159735 -10.429473 -69.015360 13.345981 -23.809963 5.443315 -6.876883 -0.836414 -2.136279 11.007386 2.796086 25.700663 -6.351267 24.721320 -7.034964 0.000000 0.000001 0.000000 2.257097 2.568029 -5.842952 -2.156301 2.440765 -10.112087 -0.000000 0.000004 -0.000003 -1.981084 5.657319 -10.756678 0.255682 5.085020 -30.710754 -0.000001 0.000004 -0.000001 -4.966133 10.089451 -9.498001 4.010022 4.046224 -37.245602 -0.000001 0.000002 0.000000 -6.459649 11.301867 -18.827155 10.728094 2.576125 -38.275243 -0.000001 0.000001 0.000003 -0.000001 -0.000000 -0.000003 0.359067 3.439803 5.059002 4.090958 -2.510059 75.024225 10.948090 11.114800 -3.908185 -0.037422 3.172932 -1.956067 10.679864 1.426905 -25.230767 -5.692443 -25.758966 7.048366 0.000001 -0.000001 0.000001 2.327433 -3.364218 9.050462 -2.150408 -2.435591 17.737257 0.000003 -0.000001 0.000000 -1.976345 -5.655353 16.654650 0.269374 -5.093491 31.689182 0.000001 0.000001 -0.000002 -4.969602 -10.097220 14.579225 4.006154 -4.057526 38.407134 -0.000002 -0.000000 -0.000002 -6.452373 -11.306794 24.237681 10.720047 -2.567499 37.801784 0.000001 -0.000001 -0.000001 0.000001 0.000000 -0.000000 -0.000000 -0.000000 -0.000000 -0.000000 -0.000000 -0.000000 -0.000000 -0.000000 -0.000000 -0.000000 -0.000000 -0.000000 -0.000000 -0.000000 -0.000000 -0.000000 -0.000000 -0.000000 -0.000000 -0.000000 -0.000000 -0.000000 -0.000000 -0.000000 -0.000000 -0.000000 -0.000000 -0.000000 -0.000000 -0.000000 -0.000000 -0.000001 -0.000000 -0.000000 -0.000001 -0.000000 -0.000000 -0.000001 -0.000000 
